<?xml version="1.0" encoding="utf-8"?>
<!-- Generator: Adobe Illustrator 15.1.0, SVG Export Plug-In  -->
<!DOCTYPE svg PUBLIC "-//W3C//DTD SVG 1.1//EN" "http://www.w3.org/Graphics/SVG/1.1/DTD/svg11.dtd" [
	<!ENTITY ns_flows "http://ns.adobe.com/Flows/1.0/">
]>
<svg version="1.1"
	 xmlns="http://www.w3.org/2000/svg" xmlns:xlink="http://www.w3.org/1999/xlink" xmlns:a="http://ns.adobe.com/AdobeSVGViewerExtensions/3.0/"
	 x="0px" y="0px" width="1000px" height="1000px" viewBox="205.558 82.244 1000 1000"
	 overflow="visible" enable-background="new 205.558 82.244 1000 1000" xml:space="preserve">
<defs>
</defs>
<path opacity="0.08" fill="#FFFFFF" d="M742.334,277.055c-10.305,10.305-23.58,14.717-34.417,12.737
	c15.309,37.124-6.522,67.36-25.23,81.967l3.749,10.098l0.878,2.345c16.99-9.239,26.266-24.238,26.266-24.238
	s33.854-35.982,47.564-44.393c13.732-8.395,214.409-299.61,214.409-299.61l-5.312-2.458l-218.747,220.2
	C759.295,245.219,755.752,263.635,742.334,277.055z"/>
<path opacity="0.08" fill="#FFFFFF" d="M512.76,731.36l-52.176-39.612c-18.556,27.945-39.91,57.57-64.714,88.841
	C309.82,887.696,223.884,907.728,210.94,916.552c-8.672,5.918-22.82,25.001-15.94,41.167c1.368,3.143,3.234,5.869,5.547,8.183
	c9.691,9.69,27.27,12.256,46.528,6.795c0,0,96.611-27.583,196.945-146.389C444.02,826.308,475.044,789.116,512.76,731.36z"/>
<path opacity="0.08" fill="#FFFFFF" d="M615.577,261.959c0,0-23.037,14.206-29.587,39.712l-0.01,0.007
	c0.008,0.008,0.008,0.008,0,0.017c-0.51,1.979-0.895,4.051-1.177,6.192c-0.047,0.316-0.088,0.638-0.123,0.951
	c-0.515,4.405-0.517,9.108,0.146,14.078c0.018,0.143,0.026,0.287,0.057,0.434c0.361,2.542,0.92,5.193,1.653,7.871
	c0.008,0.057,0.044,0.124,0.052,0.184c1.531,5.478,3.917,11.247,7.287,17.3c0.042,0.058,0.083,0.118,0.109,0.176
	c3.423,6.084,7.882,12.449,13.564,19.078l0.008,0.008c0.59,0.676,1.094,1.354,1.692,2.038l-30.406,34.865
	c0,0,0.515,102.03-108.751,272.337l52.09,39.546c49.618-78.289,107.054-188.238,121.293-295.265l30.373-31.924l0,0l4.437-4.672
	l-6.049-16.325c0,0,54.15-34.601,22.007-86.493c-0.111-0.177-0.15-0.32-0.275-0.501c-0.049-0.066-0.067-0.134-0.101-0.202
	c-0.697-0.538-1.469-0.963-2.111-1.604c-11.001-11.001-7.999-31.852,6.712-46.563c13.411-13.411,31.838-16.945,43.365-9.152
	L962.036,5.313L959.567,0c0,0-291.201,200.666-299.61,214.401C651.558,228.106,615.577,261.959,615.577,261.959z"/>
<path opacity="0.08" fill="#FFFFFF" d="M300.576,504.013c168.958-107.795,270.116-107.324,270.116-107.324l15.807-13.794
	l11.334-12.99c-15.885-19.777-23.218-39.419-22.031-58.539l-21.737,20.68C448.051,346.13,339.167,402.625,261.04,451.914
	L300.576,504.013z"/>
<path opacity="0.08" fill="#FFFFFF" d="M194.945,579.631c32.081-25.446,62.451-47.271,91.035-66.136l-39.609-52.189
	c-59.012,38.385-97.148,70.171-97.148,70.171C30.404,631.832,2.825,728.431,2.825,728.431c-6.771,23.86-1.215,45.168,14.97,52.05
	c16.167,6.881,35.257-7.262,41.167-15.939C67.796,751.626,87.837,665.693,194.945,579.631z"/>
</svg>
